<svg width="1116" height="190" viewBox="0 0 1116 190" fill="none" xmlns="http://www.w3.org/2000/svg">
<path d="M92.7734 189.087C79.2643 189.087 66.7725 187.093 55.2979 183.105C43.9046 179.118 34.0983 173.177 25.8789 165.283C17.6595 157.389 11.2712 147.542 6.71387 135.742C2.23796 123.942 0 110.311 0 94.8486C0 80.4443 2.15658 67.3828 6.46973 55.6641C10.7829 43.9453 17.0492 33.8949 25.2686 25.5127C33.1624 17.4561 42.9281 11.2305 54.5654 6.83594C66.2842 2.44141 79.0609 0.244141 92.8955 0.244141C100.545 0.244141 107.422 0.691732 113.525 1.58691C119.71 2.40072 125.407 3.49935 130.615 4.88281C136.068 6.42904 140.991 8.17871 145.386 10.1318C149.862 12.0036 153.768 13.7533 157.104 15.3809V59.4482H151.733C149.455 57.4951 146.566 55.1758 143.066 52.4902C139.648 49.8047 135.742 47.1598 131.348 44.5557C126.872 41.9515 122.03 39.7542 116.821 37.9639C111.613 36.1735 106.038 35.2783 100.098 35.2783C93.5059 35.2783 87.2396 36.3363 81.2988 38.4521C75.3581 40.4867 69.8649 43.9046 64.8193 48.7061C60.0179 53.3447 56.1117 59.4889 53.1006 67.1387C50.1709 74.7884 48.7061 84.0658 48.7061 94.9707C48.7061 106.364 50.293 115.885 53.4668 123.535C56.722 131.185 60.791 137.207 65.6738 141.602C70.638 146.077 76.1719 149.292 82.2754 151.245C88.3789 153.117 94.401 154.053 100.342 154.053C106.038 154.053 111.654 153.198 117.188 151.489C122.803 149.78 127.97 147.461 132.69 144.531C136.678 142.171 140.381 139.648 143.799 136.963C147.217 134.277 150.024 131.958 152.222 130.005H157.104V173.462C152.547 175.496 148.193 177.409 144.043 179.199C139.893 180.99 135.539 182.536 130.981 183.838C125.041 185.547 119.466 186.849 114.258 187.744C109.049 188.639 101.888 189.087 92.7734 189.087Z" fill="#4ADE80"/>
<path d="M373.286 94.7266C373.286 123.698 364.985 146.729 348.384 163.818C331.782 180.827 308.833 189.331 279.536 189.331C250.321 189.331 227.412 180.827 210.811 163.818C194.209 146.729 185.908 123.698 185.908 94.7266C185.908 65.5111 194.209 42.4398 210.811 25.5127C227.412 8.50423 250.321 0 279.536 0C308.67 0 331.579 8.50423 348.262 25.5127C364.945 42.4398 373.286 65.5111 373.286 94.7266ZM311.152 140.747C315.71 135.213 319.087 128.703 321.284 121.216C323.481 113.647 324.58 104.777 324.58 94.6045C324.58 83.6995 323.319 74.4222 320.796 66.7725C318.273 59.1227 314.977 52.9378 310.908 48.2178C306.758 43.335 301.956 39.7949 296.504 37.5977C291.133 35.4004 285.518 34.3018 279.658 34.3018C273.717 34.3018 268.102 35.3597 262.812 37.4756C257.604 39.5915 252.803 43.0908 248.408 47.9736C244.339 52.5309 241.003 58.8379 238.398 66.8945C235.876 74.8698 234.614 84.1471 234.614 94.7266C234.614 105.55 235.835 114.787 238.276 122.437C240.799 130.005 244.095 136.19 248.164 140.991C252.233 145.793 256.994 149.333 262.446 151.611C267.899 153.89 273.636 155.029 279.658 155.029C285.68 155.029 291.418 153.89 296.87 151.611C302.323 149.251 307.083 145.63 311.152 140.747Z" fill="#38BDF8"/>
<path d="M545.278 185.547H414.175V3.78418H461.05V150.391H545.278V185.547Z" fill="#F87171"/>
<path d="M724.106 128.418C724.106 146.322 716.497 160.889 701.279 172.119C686.143 183.268 665.553 188.843 639.512 188.843C624.456 188.843 611.313 187.541 600.083 184.937C588.934 182.251 578.477 178.874 568.711 174.805V131.226H573.838C583.522 138.957 594.346 144.897 606.309 149.048C618.353 153.198 629.909 155.273 640.977 155.273C643.825 155.273 647.568 155.029 652.207 154.541C656.846 154.053 660.63 153.239 663.56 152.1C667.14 150.635 670.07 148.804 672.349 146.606C674.709 144.409 675.889 141.154 675.889 136.841C675.889 132.853 674.18 129.435 670.762 126.587C667.425 123.657 662.502 121.419 655.991 119.873C649.155 118.245 641.912 116.74 634.263 115.356C626.694 113.892 619.574 112.061 612.9 109.863C597.601 104.899 586.574 98.1852 579.819 89.7217C573.146 81.1768 569.81 70.5973 569.81 57.9834C569.81 41.0563 577.378 27.2624 592.515 16.6016C607.733 5.85938 627.264 0.488281 651.108 0.488281C663.071 0.488281 674.871 1.66829 686.509 4.02832C698.228 6.30697 708.359 9.19596 716.904 12.6953V54.5654H711.899C704.575 48.7061 695.583 43.8232 684.922 39.917C674.342 35.9294 663.519 33.9355 652.451 33.9355C648.545 33.9355 644.639 34.2204 640.732 34.79C636.908 35.2783 633.205 36.2549 629.624 37.7197C626.45 38.9404 623.724 40.8122 621.445 43.335C619.167 45.7764 618.027 48.584 618.027 51.7578C618.027 56.5592 619.858 60.262 623.521 62.8662C627.183 65.389 634.1 67.7083 644.272 69.8242C650.946 71.2077 657.334 72.5505 663.438 73.8525C669.622 75.1546 676.255 76.945 683.335 79.2236C697.251 83.7809 707.505 90.0065 714.097 97.9004C720.77 105.713 724.106 115.885 724.106 128.418Z" fill="#FBBF24"/>
<path d="M921.245 3.78418L854.229 115.234V185.547H807.354V117.432L739.238 3.78418H792.461L831.768 74.0967L869.731 3.78418H921.245Z" fill="#A78BFA"/>
<path d="M1115.94 185.547H1070.78L993.628 60.791V185.547H950.659V3.78418H1006.69L1072.97 107.91V3.78418H1115.94V185.547Z" fill="#F472B6"/>
</svg>
